<svg class="svg-icon" style="width: 1em; height: 1em;vertical-align: middle;fill: currentColor;overflow: hidden;" viewBox="0 0 1024 1024" version="1.1" xmlns="http://www.w3.org/2000/svg"><path d="M441.6 1024c91.232 0 166.4-75.53 166.4-166.4v-71.294a186.296 186.296 0 0 0 44.128-15.858c44.012 5.014 89.956-7.006 125.582-31.97C882.684 736.2 960 663.682 960 538.598V496c0-120.126-80-197.024-80-254.4v-5.358c9.904-11.494 16-27.072 16-44.24V64c0-35.346-25.788-64-57.6-64H377.6C345.788 0 320 28.654 320 64v128c0 17.168 6.096 32.746 16 44.24v5.358c0 13.928-12.386 29.724-47.336 60.366l-0.296 0.258-0.292 0.262c-19.874 17.712-41.682 36.232-66.506 51.702C161.074 391.596 64 414.972 64 505.6c0 113.856 70.572 184 166.4 184 16.052 0 30.978-1.628 44.8-4.352V857.6c0 90.198 76.202 166.4 166.4 166.4z m0-96c-37.4 0-70.4-33.55-70.4-70.4V540.8c-34.65 0-70.4 52.8-140.8 52.8-52.8 0-70.4-41.25-70.4-88 0-17.588 65.424-40.89 112.2-69.852 29.15-18.148 54.45-39.048 79.75-61.598 36.748-32.218 73.266-67.672 79.192-118.15h353.504C792.174 341.58 864 405.018 864 496v42.598c0 81.048-44.394 114.248-122.65 101.202-16.002 29.224-67.958 48.302-107.25 25.85-36.45 38.73-92.762 35.574-122.1 9.9V857.6c0 37.95-32.45 70.4-70.4 70.4zM720 128c0-26.51 21.49-48 48-48s48 21.49 48 48-21.49 48-48 48-48-21.49-48-48z" fill="" /></svg>