<svg xmlns="http://www.w3.org/2000/svg" viewBox="0 0 100 125" x="0px" y="0px"><path d="M92.31,63.6c-.3-7.65-7.26-23.77-23.3-53.88-.02-.04-2.07-3.72-5.29-3.72h-21.68c-1.59,0-2.88,1.29-2.88,2.88v9.74c0,1.4,1.14,2.55,2.55,2.55h.32V11c0-.48,.39-.86,.86-.86s.86,.39,.86,.86v10.29c0,2.1,2.24,2.26,2.92,2.26h.12s.06,0,.09,0c0-.03,0-.06,0-.09V14.17c0-.48,.39-.86,.86-.86s.86,.39,.86,.86v9.3c0,1.81,1.47,3.29,3.29,3.29h4.44c1.75,0,3.17-1.42,3.17-3.17v-1.77c-.09,0-.19,.01-.29,.01h-5.39v.77c0,.48-.39,.86-.86,.86s-.86-.39-.86-.86v-4.63c0-.48,.39-.86,.86-.86s.86,.39,.86,.86v2.13h5.39c1.67,0,2.96-1.83,2.96-3.4v-3.12c0-.48,.39-.86,.86-.86s.86,.39,.86,.86v3.12c0,1.85-1.01,3.55-2.44,4.45,.43,.91,2.09,4.64,3.67,10.73,.03,.11,.04,.22,.02,.34-.03,.21-2.88,20.88,1.42,28.5,.23,.41,.09,.94-.33,1.18-.13,.08-.28,.11-.42,.11-.3,0-.59-.16-.75-.44-.36-.63-.67-1.34-.94-2.11-.03-.03-.06-.06-.09-.09-.05-.07-5.34-6.96-14.84-6.96-7.79,0-11.75,2.72-12.95,3.73,.09,.05,.18,.1,.27,.16,4.38,2.71,6.96,6.32,7.07,6.47,.28,.39,.18,.93-.2,1.2-.39,.28-.93,.18-1.2-.2-.02-.03-2.52-3.51-6.62-6.03-5.38-3.31-10.88-3.49-16.33-.53-4.57,2.48-7.86,5.84-9.78,9.98-1.84,3.96-1.84,7.49-1.76,8.83,.11,1.81,1.88,6.32,7.77,10.38,9.1,6.28,22.33,7.61,31.86,7.61,.5-.07,4.24-.63,8.74-1.79,6.32-1.63,11.28-3.71,14.35-6.01,.01,0,.02-.02,.04-.03,.14-.09,13.65-9.18,17.18-12.91,3.35-3.54,4.79-6.52,4.67-9.66Z"/><text x="0" y="115" fill="#000000" font-size="5px" font-weight="bold" font-family="'Helvetica Neue', Helvetica, Arial-Unicode, Arial, Sans-serif">Created by Suncheli Project</text><text x="0" y="120" fill="#000000" font-size="5px" font-weight="bold" font-family="'Helvetica Neue', Helvetica, Arial-Unicode, Arial, Sans-serif">from the Noun Project</text></svg>